PathFileType  4	(X/Y/Z) /workspace/opencap-mono/results/ba8f9f72-c3c0-4cdb-a5f6-69ba924cb011/abb3620c-82e1-4ee9-a98e-9a9992d31a42/MarkerData/abb3620c-82e1-4ee9-a98e-9a9992d31a42_5
DataRate	CameraRate	NumFrames	NumMarkers	Units	OrigDataRate	OrigDataStartFrame	OrigNumFrames
60.0	60.0	5	63	m	60.0	451	720
Frame#	Time	sternum			r_shoulder			l_shoulder			r_elbow			l_elbow			r_melbow			l_melbow			r_wrist_radius			l_wrist_radius			r_wrist_ulna			l_wrist_ulna			C7			r_ASIS			l_ASIS			r_PSIS			l_PSIS			r_knee			l_knee			r_mknee			l_mknee			r_ankle			l_ankle			r_mankle			l_mankle			r_5meta			l_5meta			r_toe			l_toe			r_pinky			l_pinky			r_index			l_index			L4			T6			r_big_toe			l_big_toe			l_calc			r_calc			Nose			Neck			RShoulder			RElbow			RWrist			LShoulder			LElbow			LWrist			MidHip			RHip			RKnee			RAnkle			LHip			LKnee			LAnkle			REye			LEye			REar			LEar			LBigToe			LSmallToe			LHeel			RBigToe			RSmallToe			RHeel			
		X1	Y1	Z1	X2	Y2	Z2	X3	Y3	Z3	X4	Y4	Z4	X5	Y5	Z5	X6	Y6	Z6	X7	Y7	Z7	X8	Y8	Z8	X9	Y9	Z9	X10	Y10	Z10	X11	Y11	Z11	X12	Y12	Z12	X13	Y13	Z13	X14	Y14	Z14	X15	Y15	Z15	X16	Y16	Z16	X17	Y17	Z17	X18	Y18	Z18	X19	Y19	Z19	X20	Y20	Z20	X21	Y21	Z21	X22	Y22	Z22	X23	Y23	Z23	X24	Y24	Z24	X25	Y25	Z25	X26	Y26	Z26	X27	Y27	Z27	X28	Y28	Z28	X29	Y29	Z29	X30	Y30	Z30	X31	Y31	Z31	X32	Y32	Z32	X33	Y33	Z33	X34	Y34	Z34	X35	Y35	Z35	X36	Y36	Z36	X37	Y37	Z37	X38	Y38	Z38	X39	Y39	Z39	X40	Y40	Z40	X41	Y41	Z41	X42	Y42	Z42	X43	Y43	Z43	X44	Y44	Z44	X45	Y45	Z45	X46	Y46	Z46	X47	Y47	Z47	X48	Y48	Z48	X49	Y49	Z49	X50	Y50	Z50	X51	Y51	Z51	X52	Y52	Z52	X53	Y53	Z53	X54	Y54	Z54	X55	Y55	Z55	X56	Y56	Z56	X57	Y57	Z57	X58	Y58	Z58	X59	Y59	Z59	X60	Y60	Z60	X61	Y61	Z61	X62	Y62	Z62	X63	Y63	Z63	

451	7.5000000	3.9642113	1.6964852	10.6093959	3.8101700	1.7187852	10.6449570	4.0770837	1.7285152	10.4907849	3.6949246	1.3954652	10.7163402	4.1506035	1.4206652	10.3348012	3.7173525	1.3770652	10.6790333	4.1057898	1.4072952	10.3310508	3.9372978	1.4470852	10.8149286	4.1263640	1.3242252	10.5795811	3.9298764	1.4141652	10.8422963	4.1476597	1.2919252	10.5645310	3.9000378	1.7440552	10.5129045	3.8661505	1.2683952	10.6780234	4.0618405	1.2641152	10.5912893	3.8504322	1.2928052	10.4968567	3.9479516	1.2838052	10.4504966	3.8285145	0.8137952	10.7321379	4.1597234	0.8716252	10.7470279	3.9203600	0.8122352	10.6752539	4.0582617	0.8681952	10.7756721	3.7627943	0.4000952	10.5960643	4.0194832	0.5169952	10.5300728	3.8213451	0.3895952	10.5835350	3.9752130	0.5097352	10.5663525	3.7610901	0.3376352	10.6825358	4.0651363	0.4262652	10.5534135	3.8271367	0.3459352	10.7121642	4.0518972	0.4151952	10.6218173	4.0008441	1.4231652	10.9005792	4.1574292	1.2541552	10.6393166	4.0125875	1.4780552	10.8589740	4.1309467	1.3021052	10.6693705	3.9100932	1.3881652	10.4918847	3.8914523	1.6154652	10.4770354	3.8673242	0.3378852	10.7348982	4.0397303	0.3923952	10.6611837	3.9581015	0.5075652	10.4835312	3.7635882	0.3606552	10.5268776	4.0572485	1.8768752	10.6378842	3.9338092	1.6490652	10.5552658	3.7853044	1.6442052	10.6410194	3.7192911	1.3971452	10.6993898	3.9480274	1.4195652	10.8262762	4.0823140	1.6539352	10.4695122	4.1269352	1.4141252	10.3470127	4.1260571	1.2945552	10.5734246	3.9391180	1.2001952	10.5812433	3.8552604	1.2062752	10.6200273	3.8623848	0.7721452	10.7224438	3.7930817	0.3831852	10.5809922	4.0229799	1.1941252	10.5424503	4.1253297	0.8418652	10.7658897	3.9878467	0.5122152	10.5450565	4.0089791	1.9148552	10.6438871	4.0440159	1.9108252	10.5871594	3.9111917	1.8879452	10.6298447	3.9887446	1.8805952	10.5129146	4.0599175	0.3756252	10.6707295	4.0900524	0.3894052	10.5971845	3.9581015	0.5075652	10.4835312	3.8691603	0.3307852	10.7580536	3.7867323	0.3292552	10.7404376	3.7623657	0.3420352	10.5297831
452	7.5166667	3.9725763	1.7109052	10.6311382	3.8196496	1.7331352	10.6704850	4.0820393	1.7437452	10.5092381	3.7165890	1.4087252	10.7531001	4.1441636	1.4425652	10.3370172	3.7385896	1.3901052	10.7153843	4.0989928	1.4298152	10.3350974	3.9580339	1.4770552	10.8422741	4.1317144	1.3318752	10.5764599	3.9533960	1.4445752	10.8708184	4.1513394	1.3000152	10.5583908	3.9057778	1.7588552	10.5364901	3.8729787	1.2821252	10.7021386	4.0683781	1.2787352	10.6150814	3.8568013	1.3074352	10.5210336	3.9541564	1.2983152	10.4747183	3.8269179	0.8241052	10.7383778	4.1591100	0.8844352	10.7707514	3.9199293	0.8230652	10.6837256	4.0581459	0.8819052	10.7989435	3.7612245	0.4103052	10.5993596	4.0359542	0.4994852	10.5942022	3.8199694	0.4001452	10.5873843	3.9919029	0.4942252	10.6314557	3.7584990	0.3420352	10.6821771	4.0854734	0.4135352	10.6267383	3.8241218	0.3485552	10.7129982	4.0727305	0.4092652	10.6959473	4.0246193	1.4603452	10.9271572	4.1641282	1.2580352	10.6307005	4.0316892	1.5144652	10.8836486	4.1403890	1.3048852	10.6645492	3.9158580	1.4026552	10.5153936	3.8963012	1.6299352	10.5004262	3.8641231	0.3394052	10.7356343	4.0614892	0.3904452	10.7377534	3.9748394	0.4825552	10.5494070	3.7631253	0.3744852	10.5284381	4.0683321	1.8887252	10.6577717	3.9404804	1.6639052	10.5773989	3.7950436	1.6584252	10.6681912	3.7402447	1.4107752	10.7350238	3.9707560	1.4506052	10.8541758	4.0859123	1.6693852	10.4865933	4.1211360	1.4355652	10.3502446	4.1304858	1.3025352	10.5688253	3.9455274	1.2145152	10.6047659	3.8615659	1.2205152	10.6433470	3.8604957	0.7822752	10.7284590	3.7917379	0.3942452	10.5842053	4.0294981	1.2085152	10.5661891	4.1253926	0.8544252	10.7907892	4.0046218	0.4952452	10.6098352	4.0206923	1.9270552	10.6661866	4.0534591	1.9235352	10.6080804	3.9220723	1.9014352	10.6555626	3.9950783	1.8950452	10.5354640	4.0823583	0.3757652	10.7490075	4.1121249	0.3829052	10.6740990	3.9748394	0.4825552	10.5494070	3.8657567	0.3311552	10.7584195	3.7834269	0.3302152	10.7398121	3.7618246	0.3559352	10.5302811
453	7.5333333	3.9835473	1.7249452	10.6500131	3.8326505	1.7490052	10.6935726	4.0892716	1.7574452	10.5245602	3.7410626	1.4254852	10.7901769	4.1384903	1.4623952	10.3391273	3.7615171	1.4061752	10.7517071	4.0929848	1.4501752	10.3390374	3.9836975	1.5073252	10.8621524	4.1351966	1.3435052	10.5747184	3.9822830	1.4757652	10.8920895	4.1531096	1.3117352	10.5547366	3.9146391	1.7737852	10.5570736	3.8795865	1.2954852	10.7244076	4.0745864	1.2928452	10.6368110	3.8628443	1.3221452	10.5434254	3.9599566	1.3126952	10.4970630	3.8238057	0.8347652	10.7392546	4.1584306	0.8978952	10.7941903	3.9179324	0.8342252	10.6867776	4.0577007	0.8964552	10.8216200	3.7588363	0.4192752	10.6010265	4.0492937	0.4926752	10.6532633	3.8178255	0.4095252	10.5896395	4.0051676	0.4894552	10.6908901	3.7554409	0.3459952	10.6802877	4.1009295	0.4109152	10.6930204	3.8205904	0.3509552	10.7121239	4.0880029	0.4122952	10.7622210	4.0551113	1.4977552	10.9439687	4.1681447	1.2673952	10.6254235	4.0568939	1.5503052	10.8981933	4.1471107	1.3139152	10.6615157	3.9215009	1.4170552	10.5372237	3.9026242	1.6445552	10.5216025	3.8604280	0.3409052	10.7346616	4.0770068	0.3970652	10.8056310	3.9887183	0.4703952	10.6101982	3.7619715	0.3866952	10.5287828	4.0829055	1.8984052	10.6768480	3.9495131	1.6788852	10.5973782	3.8077009	1.6744552	10.6937666	3.7634619	1.4275552	10.7704886	3.9983818	1.4819252	10.8743181	4.0913253	1.6833152	10.5009897	4.1159873	1.4551552	10.3532172	4.1329915	1.3143252	10.5663858	3.9515363	1.2286252	10.6262371	3.8674798	1.2346252	10.6646194	3.8570814	0.7926852	10.7290847	3.7896554	0.4040152	10.5859264	4.0355880	1.2226352	10.5878415	4.1251600	0.8680952	10.8151867	4.0181039	0.4891852	10.6692056	4.0363910	1.9377952	10.6866593	4.0681215	1.9343752	10.6279595	3.9369860	1.9150952	10.6772692	4.0078542	1.9086952	10.5557212	4.0981729	0.3841552	10.8182594	4.1283139	0.3854952	10.7429739	3.9887183	0.4703952	10.6101982	3.8619039	0.3316552	10.7570753	3.7796777	0.3311252	10.7375121	3.7606947	0.3682652	10.5296991
454	7.5500000	3.9939053	1.7374352	10.6734682	3.8451946	1.7633052	10.7205737	4.0956678	1.7694152	10.5443252	3.7670716	1.4424552	10.8341596	4.1323218	1.4805252	10.3478363	3.7861026	1.4219452	10.7953349	4.0866344	1.4683552	10.3499346	4.0085890	1.5387852	10.8883241	4.1405344	1.3560852	10.5801424	4.0104342	1.5087552	10.9198364	4.1567983	1.3244152	10.5585862	3.9229772	1.7863352	10.5817604	3.8865118	1.3072552	10.7537097	4.0811913	1.3050352	10.6655224	3.8693787	1.3346952	10.5726666	3.9662336	1.3245952	10.5263828	3.8202984	0.8446652	10.7441732	4.1568357	0.9112152	10.8288209	3.9156902	0.8446652	10.6941178	4.0562505	0.9115352	10.8551594	3.7563723	0.4269252	10.6077777	4.0608221	0.4887252	10.7308551	3.8156220	0.4176952	10.5970860	4.0164284	0.4883152	10.7685117	3.7525057	0.3487252	10.6830567	4.1136171	0.4118552	10.7784903	3.8171329	0.3520652	10.7159182	4.1001460	0.4196152	10.8470839	4.0837468	1.5380452	10.9670094	4.1748421	1.2786452	10.6278845	4.0801085	1.5880152	10.9186619	4.1564457	1.3249652	10.6657032	3.9276200	1.4291452	10.5655099	3.9088344	1.6566752	10.5478238	3.8567935	0.3410952	10.7383623	4.0890204	0.4086252	10.8918127	4.0008944	0.4613252	10.6900450	3.7609305	0.3977752	10.5343991	4.0949323	1.9075252	10.7009598	3.9581472	1.6922152	10.6220927	3.8202109	1.6889452	10.7239406	3.7881854	1.4442952	10.8129451	4.0252641	1.5147652	10.9009767	4.0960927	1.6954752	10.5202490	4.1104981	1.4729152	10.3628830	4.1375210	1.3269852	10.5715322	3.9578542	1.2408952	10.6549250	3.8736684	1.2471152	10.6929932	3.8533112	0.8023552	10.7337152	3.7875448	0.4125752	10.5928424	4.0420359	1.2346752	10.6168658	4.1238674	0.8822052	10.8510617	4.0296765	0.4864352	10.7469394	4.0491114	1.9477052	10.7111056	4.0807639	1.9441452	10.6523363	3.9493402	1.9271452	10.7015778	4.0199993	1.9202152	10.5797448	4.1102914	0.3975652	10.9058251	4.1412107	0.3921552	10.8308583	4.0008944	0.4613252	10.6900450	3.8580825	0.3308152	10.7603248	3.7759793	0.3307252	10.7396934	3.7597216	0.3795052	10.5343650
455	7.5666667	4.0112148	1.7530852	10.7008268	3.8647389	1.7816052	10.7504750	4.1096128	1.7842452	10.5690556	3.7937322	1.4648552	10.8777621	4.1356654	1.5012852	10.3636180	3.8110143	1.4429852	10.8386184	4.0898438	1.4891252	10.3673529	4.0353107	1.5685452	10.9136942	4.1513292	1.3735652	10.5935508	4.0399092	1.5398852	10.9462586	4.1662619	1.3418352	10.5710869	3.9388377	1.8019852	10.6099549	3.9005824	1.3219852	10.7866417	4.0950099	1.3204652	10.6980720	3.8833267	1.3503852	10.6055304	3.9799490	1.3397752	10.5594140	3.8227767	0.8595452	10.7508789	4.1642576	0.9270052	10.8646769	3.9194330	0.8596352	10.7032226	4.0639151	0.9289952	10.8904004	3.7578044	0.4394552	10.6171291	4.0809831	0.4925352	10.8116560	3.8172446	0.4307652	10.6070227	4.0363816	0.4949552	10.8492376	3.7538627	0.3559952	10.6876947	4.1346930	0.4209152	10.8664153	3.8180171	0.3575752	10.7212626	4.1206858	0.4346552	10.9338871	4.1144515	1.5738352	10.9880026	4.1862242	1.2953452	10.6395365	4.1062636	1.6214452	10.9380302	4.1699189	1.3417952	10.6782420	3.9410264	1.4444052	10.5975474	3.9225314	1.6720652	10.5777238	3.8576407	0.3457352	10.7433364	4.1092614	0.4277852	10.9794697	4.0215668	0.4606352	10.7736772	3.7635977	0.4141552	10.5427817	4.1142563	1.9206452	10.7275475	3.9739281	1.7091752	10.6506473	3.8391839	1.7077952	10.7566760	3.8135444	1.4660852	10.8552455	4.0534369	1.5454952	10.9264056	4.1086813	1.7105552	10.5446228	4.1143336	1.4934252	10.3793134	4.1476161	1.3444452	10.5848791	3.9714909	1.2563752	10.6872022	3.8871328	1.2626952	10.7248591	3.8553628	0.8169552	10.7400343	3.7892772	0.4260752	10.6023780	4.0558582	1.2500552	10.6495496	4.1317235	0.8988952	10.8882346	4.0498677	0.4914652	10.8278647	4.0690673	1.9616152	10.7377343	4.1004752	1.9574052	10.6788509	3.9689555	1.9428752	10.7285110	4.0391264	1.9343652	10.6063290	4.1305195	0.4185252	10.9946456	4.1623270	0.4067552	10.9205896	4.0215668	0.4606352	10.7736772	3.8589054	0.3343952	10.7647358	3.7768497	0.3345552	10.7433874	3.7625209	0.3961252	10.5416837
